@startuml Securities_Products
class Securities {
  +SecurityID : int
  SecurityName : nvarchar(100)
  ...
}

class FINRA_FI {
  +PKID : tinyint
  Symbol : nvarchar(50)
  ...
}

class MortgageProducts {
  +ProductID : int
  ProductName : nvarchar(100)
  ...
}

class ProductSubtype {
  +PTID : int
  ProdType : nchar(50)
  ...
}

class InterestType {
  +ITID : int
  InterestTypeID : nchar(10)
  ...
}

Loans --> Securities : backed by
Applications --> MortgageProducts : requests
MortgageProducts --> ProductSubtype : categorized by
Securities --> FINRA_FI : maps to

@enduml

